<?xml version="1.0" standalone="no"?>
<!DOCTYPE svg PUBLIC "-//W3C//DTD SVG 20010904//EN"
 "http://www.w3.org/TR/2001/REC-SVG-20010904/DTD/svg10.dtd">
<svg version="1.0" xmlns="http://www.w3.org/2000/svg"
 width="94.000000pt" height="94.000000pt" viewBox="0 0 94.000000 94.000000"
 preserveAspectRatio="xMidYMid meet">
<metadata>
Created by potrace 1.14, written by Peter Selinger 2001-2017
</metadata>
<g transform="translate(0.000000,94.000000) scale(0.100000,-0.100000)"
fill="#000000" stroke="none">
<path d="M446 888 c-17 -10 -22 -53 -7 -63 11 -6 10 -84 -1 -86 -20 -3 -24 -5
-35 -12 -7 -5 -13 -17 -13 -28 0 -17 -7 -19 -73 -16 -133 5 -162 -15 -159
-111 1 -51 0 -54 -28 -64 -29 -10 -30 -13 -31 -71 -2 -139 4 -182 26 -173 21
8 32 -15 33 -71 1 -60 14 -91 45 -102 27 -10 516 -7 539 3 23 10 35 51 34 113
-1 29 3 54 9 54 5 1 16 2 24 3 21 2 28 39 26 144 -1 94 -11 119 -42 107 -15
-5 -15 -7 -17 68 -3 87 -20 99 -135 100 -65 1 -91 4 -91 13 0 17 -30 45 -40
39 -23 -14 -31 75 -9 102 26 30 -18 71 -55 51z"/>
</g>
</svg>
